<svg width="85" height="85" viewBox="0 0 85 85" fill="none" xmlns="http://www.w3.org/2000/svg">
<circle cx="42.5" cy="42.5" r="42.5" fill="#D9D9D9"/>
<rect x="1.54541" y="2.06055" width="72.6364" height="72.6364" rx="36.3182" fill="white"/>
<path d="M34.2053 21.3066C34.2053 19.9596 35.2972 18.8677 36.6442 18.8677H39.0831C40.4301 18.8677 41.522 19.9596 41.522 21.3066L41.8148 23.3561C42.077 25.1912 44.2096 26.0746 45.6926 24.9623L47.3488 23.7201C48.3013 22.7677 49.8455 22.7677 50.798 23.7201L52.5226 25.4447C53.475 26.3972 53.475 27.9414 52.5226 28.8939L51.2804 30.5501C50.1682 32.0331 51.0515 34.1657 52.8866 34.4279L54.9361 34.7207C56.2831 34.7207 57.375 35.8126 57.375 37.1596V39.5985C57.375 40.9455 56.2831 42.0374 54.9361 42.0374L52.8866 42.3302C51.0515 42.5924 50.1681 44.725 51.2804 46.208L52.5226 47.8642C53.475 48.8167 53.475 50.3609 52.5226 51.3134L50.798 53.038C49.8455 53.9904 48.3013 53.9904 47.3488 53.038L45.6926 51.7958C44.2096 50.6835 42.077 51.5669 41.8148 53.402L41.522 55.4515C41.522 56.7985 40.4301 57.8904 39.0831 57.8904H36.6442C35.2972 57.8904 34.2053 56.7985 34.2053 55.4515L33.9125 53.402C33.6503 51.5669 31.5177 50.6835 30.0347 51.7958L28.3785 53.038C27.426 53.9904 25.8818 53.9904 24.9293 53.038L23.2048 51.3134C22.2523 50.3609 22.2523 48.8167 23.2048 47.8642L24.4469 46.208C25.5592 44.725 24.6758 42.5924 22.8407 42.3302L20.7912 42.0374C19.4442 42.0374 18.3523 40.9455 18.3523 39.5985V37.1596C18.3523 35.8126 19.4442 34.7207 20.7912 34.7207L22.8407 34.4279C24.6758 34.1657 25.5592 32.0331 24.4469 30.5501L23.2048 28.8939C22.2523 27.9414 22.2523 26.3972 23.2048 25.4447L24.9293 23.7201C25.8818 22.7677 27.426 22.7677 28.3785 23.7201L30.0347 24.9623C31.5177 26.0746 33.6503 25.1912 33.9125 23.3561L34.2053 21.3066Z" stroke="#EB7411" stroke-width="1.0303" stroke-linecap="round" stroke-linejoin="round"/>
<circle cx="37.8637" cy="38.3793" r="4.33586" stroke="#EB7411" stroke-width="1.0303" stroke-linecap="round" stroke-linejoin="round"/>
</svg>
