<svg width="44" height="45" viewBox="0 0 44 45" fill="none" xmlns="http://www.w3.org/2000/svg">
<rect y="0.5" width="44" height="44" rx="22" fill="white"/>
<path d="M13.0617 17.7446C13.1085 16.7226 13.2685 16.0635 13.4849 15.504L13.4878 15.4963C13.7022 14.927 14.0382 14.4112 14.4723 13.9849L14.4783 13.9789L14.4843 13.9728C14.911 13.5382 15.4269 13.2026 15.9958 12.9887L16.0056 12.9849C16.5638 12.7679 17.2216 12.6084 18.2445 12.5617M13.0617 17.7446C13.0125 18.8366 13 19.1751 13 22.0063C13 24.8381 13.0118 25.1758 13.0617 26.268M13.0617 17.7446L13.0617 18.0201M13.4887 28.5168C13.7026 29.0856 14.0382 29.6015 14.4728 30.0282L14.4789 30.0342L14.4849 30.0402C14.9112 30.4743 15.427 30.8103 15.9963 31.0247L16.0048 31.0279C16.5635 31.2446 17.2217 31.4041 18.2445 31.4509M13.4887 28.5168L13.4849 28.5069C13.2678 27.9487 13.1084 27.2909 13.0617 26.268M13.4887 28.5168L13.4759 28.4492M13.0617 26.268L13.0784 26.3562M13.0617 26.268L13.0617 25.9919M13.4759 28.4492L13.0784 26.3562M13.4759 28.4492C13.3071 28.0033 13.1332 27.381 13.0784 26.3562M13.4759 28.4492C13.4818 28.4649 13.4877 28.4803 13.4936 28.4955C13.7077 29.0726 14.0469 29.5952 14.4868 30.0256C14.9171 30.4655 15.4395 30.8046 16.0164 31.0187C16.4794 31.199 17.1317 31.3875 18.2443 31.4385C19.3671 31.4896 19.714 31.5 22.5062 31.5C25.2985 31.5 25.6457 31.4896 26.7685 31.4385C27.8824 31.3874 28.534 31.1979 28.9954 31.019C29.5726 30.805 30.0953 30.4657 30.5257 30.0256C30.9655 29.5953 31.3046 29.073 31.5187 28.4961C31.699 28.0331 31.8875 27.3808 31.9385 26.2682C31.9896 25.1454 32 24.7978 32 22.0063C32 19.2147 31.9895 18.8668 31.9384 17.744C31.8871 16.6243 31.6959 15.9717 31.5161 15.5099C31.2811 14.9032 30.9831 14.4444 30.525 13.9863C30.0678 13.53 29.6102 13.2318 29.003 12.9965C28.5396 12.8154 27.8866 12.6253 26.7685 12.5741C26.6712 12.5696 26.5798 12.5655 26.4921 12.5617M13.0784 26.3562C13.0769 26.3273 13.0754 26.2981 13.074 26.2685C13.0696 26.1712 13.0655 26.0797 13.0617 25.9919M18.2445 12.5617C19.3367 12.5118 19.6751 12.5 22.5062 12.5C25.3374 12.5 25.6756 12.5125 26.7676 12.5617M18.2445 12.5617L18.5206 12.5617M26.7676 12.5617L26.4921 12.5617M26.7676 12.5617C27.7897 12.6084 28.449 12.7684 29.0085 12.9849L29.0162 12.9878C29.5856 13.2023 30.1013 13.5382 30.5276 13.9723L30.5335 13.9783L30.5396 13.9842C30.9737 14.4106 31.3096 14.9265 31.5239 15.496L31.5276 15.5056C31.7446 16.0638 31.9041 16.7217 31.9508 17.7445M18.5206 12.5617L26.4921 12.5617M18.5206 12.5617C19.4455 12.5212 19.9567 12.5125 22.5062 12.5125C25.056 12.5125 25.5671 12.5212 26.4921 12.5617M18.5206 12.5617C18.4329 12.5655 18.3414 12.5696 18.244 12.5741C17.1301 12.6251 16.4784 12.8146 16.0171 12.9936C15.4377 13.2084 14.9133 13.5494 14.4819 13.9919C14.0281 14.4476 13.7311 14.9042 13.4966 15.5094C13.3154 15.9728 13.1253 16.6261 13.074 17.7443C13.0696 17.8414 13.0655 17.9326 13.0617 18.0201M31.9508 26.268C31.9041 27.2908 31.7446 27.949 31.528 28.5077L31.5247 28.5162C31.3102 29.0856 30.9743 29.6013 30.5402 30.0276L30.5342 30.0336L30.5282 30.0397C30.1015 30.4743 29.5856 30.8099 29.0167 31.0238L29.0069 31.0276C28.4487 31.2447 27.7909 31.4041 26.768 31.4509M13.0617 25.9919C13.0212 25.067 13.0125 24.5558 13.0125 22.0063C13.0125 19.4559 13.0212 18.9454 13.0617 18.0201M13.0617 25.9919L13.0617 18.0201M20.8155 26.0881C21.3515 26.3101 21.9261 26.4244 22.5063 26.4244C23.678 26.4244 24.8018 25.9589 25.6304 25.1304C26.4589 24.3018 26.9244 23.178 26.9244 22.0063C26.9244 20.8345 26.4589 19.7107 25.6304 18.8822C24.8018 18.0536 23.678 17.5881 22.5063 17.5881C21.9261 17.5881 21.3515 17.7024 20.8155 17.9244C20.2795 18.1465 19.7924 18.4719 19.3821 18.8822C18.9719 19.2924 18.6464 19.7795 18.4244 20.3155C18.2024 20.8515 18.0881 21.4261 18.0881 22.0063C18.0881 22.5865 18.2024 23.161 18.4244 23.697C18.6464 24.2331 18.9719 24.7201 19.3821 25.1304C19.7924 25.5406 20.2795 25.8661 20.8155 26.0881ZM19.3723 18.8723C20.2035 18.0411 21.3308 17.5742 22.5063 17.5742C23.6817 17.5742 24.809 18.0411 25.6402 18.8723C26.4714 19.7035 26.9383 20.8308 26.9383 22.0063C26.9383 23.1817 26.4714 24.309 25.6402 25.1402C24.809 25.9714 23.6817 26.4383 22.5063 26.4383C21.3308 26.4383 20.2035 25.9714 19.3723 25.1402C18.5411 24.309 18.0742 23.1817 18.0742 22.0063C18.0742 20.8308 18.5411 19.7035 19.3723 18.8723ZM29.434 16.5423C29.434 16.8787 29.3004 17.2014 29.0625 17.4393C28.8246 17.6772 28.5019 17.8108 28.1655 17.8108C27.829 17.8108 27.5064 17.6772 27.2685 17.4393C27.0306 17.2014 26.8969 16.8787 26.8969 16.5423C26.8969 16.2059 27.0306 15.8832 27.2685 15.6453C27.5064 15.4074 27.829 15.2737 28.1655 15.2737C28.5019 15.2737 28.8246 15.4074 29.0625 15.6453C29.3004 15.8832 29.434 16.2059 29.434 16.5423Z" stroke="black" stroke-linejoin="round"/>
</svg>
