<svg width="44" height="45" viewBox="0 0 44 45" fill="none" xmlns="http://www.w3.org/2000/svg">
<rect y="0.5" width="44" height="44" rx="22" fill="white"/>
<path d="M32 13.9706V31.0294C32 31.4194 31.845 31.7935 31.5692 32.0693C31.2935 32.3451 30.9194 32.5 30.5294 32.5H13.4706C13.0805 32.5 12.7065 32.3451 12.4307 32.0693C12.1549 31.7935 12 31.4194 12 31.0294V13.9706C12 13.5806 12.1549 13.2065 12.4307 12.9307C12.7065 12.6549 13.0805 12.5 13.4706 12.5H30.5294C30.9194 12.5 31.2935 12.6549 31.5692 12.9307C31.845 13.2065 32 13.5806 32 13.9706V13.9706ZM17.8823 20.1471H14.9411V29.5588H17.8823V20.1471ZM18.147 16.9118C18.1486 16.6893 18.1063 16.4687 18.0226 16.2626C17.9389 16.0564 17.8154 15.8688 17.6592 15.7104C17.5029 15.552 17.317 15.4259 17.1121 15.3393C16.9071 15.2528 16.6872 15.2074 16.4647 15.2059H16.4117C15.9593 15.2059 15.5254 15.3856 15.2055 15.7055C14.8856 16.0254 14.7059 16.4593 14.7059 16.9118C14.7059 17.3642 14.8856 17.7981 15.2055 18.118C15.5254 18.4379 15.9593 18.6176 16.4117 18.6176V18.6176C16.6342 18.6231 16.8556 18.5847 17.0633 18.5046C17.2709 18.4245 17.4607 18.3042 17.6219 18.1507C17.783 17.9972 17.9123 17.8135 18.0024 17.61C18.0926 17.4065 18.1417 17.1872 18.147 16.9647V16.9118ZM29.0588 23.8412C29.0588 21.0118 27.2588 19.9118 25.4706 19.9118C24.8851 19.8824 24.3021 20.0072 23.7798 20.2734C23.2576 20.5397 22.8142 20.9383 22.4941 21.4294H22.4117V20.1471H19.647V29.5588H22.5882V24.5529C22.5457 24.0403 22.7072 23.5315 23.0376 23.1372C23.368 22.7429 23.8407 22.4949 24.3529 22.4471H24.4647C25.4 22.4471 26.0941 23.0353 26.0941 24.5176V29.5588H29.0353L29.0588 23.8412Z" stroke="black" stroke-linejoin="round"/>
</svg>
