<svg width="44" height="45" viewBox="0 0 44 45" fill="none" xmlns="http://www.w3.org/2000/svg">
<rect y="0.5" width="44" height="44" rx="22" fill="white"/>
<path d="M31.9999 16.4246C31.2644 16.7505 30.4744 16.9707 29.6437 17.0702C30.4911 16.5629 31.1411 15.7578 31.4477 14.7995C30.6549 15.2698 29.7767 15.6116 28.8422 15.7948C28.0935 14.9985 27.0277 14.5 25.8474 14.5C23.5819 14.5 21.7445 16.3374 21.7445 18.6046C21.7445 18.9253 21.7815 19.2371 21.8502 19.5383C18.4388 19.3666 15.4167 17.7326 13.3925 15.2505C13.0402 15.8582 12.8376 16.5629 12.8376 17.3134C12.8376 18.7368 13.5625 19.9937 14.6627 20.7292C13.9897 20.7072 13.3573 20.5231 12.8041 20.2157V20.2685C12.8041 22.2565 14.2179 23.9151 16.0958 24.2921C15.7505 24.3855 15.3885 24.4348 15.015 24.4348C14.7508 24.4348 14.4927 24.4102 14.2425 24.3626C14.7648 25.9921 16.2799 27.1795 18.0759 27.2112C16.671 28.3122 14.9014 28.9684 12.9794 28.9684C12.6482 28.9684 12.3214 28.949 11.9999 28.9112C13.8162 30.0765 15.9725 30.7547 18.289 30.7547C25.8377 30.7547 29.9644 24.5026 29.9644 19.0803C29.9644 18.9041 29.9599 18.7262 29.952 18.55C30.7536 17.9704 31.4494 17.2491 31.9982 16.4272L31.9999 16.4246Z" stroke="black" stroke-linejoin="round"/>
</svg>
